#tb 0: 1/5
#media_type 0: video
#codec_id 0: rawvideo
#dimensions 0: 720x400
#sar 0: 0/1
0,          0,          0,        1,   864000, 0xd6929ea7
0,          1,          1,        1,   864000, 0x9d5283fa
0,          2,          2,        1,   864000, 0xcec52d42
0,          3,          3,        1,   864000, 0x34d5943e
0,          4,          4,        1,   864000, 0x5bd0b2a8
0,          5,          5,        1,   864000, 0x41f1c468
0,          6,          6,        1,   864000, 0x16aa54b9
0,          7,          7,        1,   864000, 0xdb92e88a
0,          8,          8,        1,   864000, 0x0ae5d695
0,          9,          9,        1,   864000, 0x2c338d33
0,         10,         10,        1,   864000, 0x2c338d33
0,         11,         11,        1,   864000, 0x2c338d33
0,         12,         12,        1,   864000, 0xd9c1152f
0,         13,         13,        1,   864000, 0x9833bf29
0,         14,         14,        1,   864000, 0xbedbe1bc
0,         15,         15,        1,   864000, 0xd137d921
0,         16,         16,        1,   864000, 0xcb0f967a
0,         17,         17,        1,   864000, 0x931a2881
0,         18,         18,        1,   864000, 0xeb8ca351
0,         19,         19,        1,   864000, 0xe2f66886
0,         20,         20,        1,   864000, 0xb81fb99e
0,         21,         21,        1,   864000, 0x2048a4d9
0,         22,         22,        1,   864000, 0x145b514f
0,         23,         23,        1,   864000, 0xcb6236f4
0,         24,         24,        1,   864000, 0x6d2d79db
0,         25,         25,        1,   864000, 0xadca5356
0,         26,         26,        1,   864000, 0x5d51f80c
0,         27,         27,        1,   864000, 0x9e240e68
0,         28,         28,        1,   864000, 0xcafcbcc2
0,         29,         29,        1,   864000, 0x76f99028
0,         30,         30,        1,   864000, 0xd7450c61
0,         31,         31,        1,   864000, 0x1431d79c
0,         32,         32,        1,   864000, 0x081a4e30
0,         33,         33,        1,   864000, 0x0437c7d4
0,         34,         34,        1,   864000, 0xb4bbea4b
0,         35,         35,        1,   864000, 0x0a149d41
0,         36,         36,        1,   864000, 0xf7dbc0d5
0,         37,         37,        1,   864000, 0x6933003c
0,         38,         38,        1,   864000, 0x18ce30e4
0,         39,         39,        1,   864000, 0x8c8728c8
0,         40,         40,        1,   864000, 0x37b6535b
0,         41,         41,        1,   864000, 0xcdab7be7
0,         42,         42,        1,   864000, 0xe1e1cbe7
0,         43,         43,        1,   864000, 0x1d476482
0,         44,         44,        1,   864000, 0x0ae0b393
0,         45,         45,        1,   864000, 0x49140206
0,         46,         46,        1,   864000, 0xe9f9bd09
0,         47,         47,        1,   864000, 0x89a7988b
0,         48,         48,        1,   864000, 0x24f780a7
0,         49,         49,        1,   864000, 0x88a53dc0
0,         50,         50,        1,   864000, 0x27ed3bb9
0,         51,         51,        1,   864000, 0xc8151dfd
0,         52,         52,        1,   864000, 0xfcb8a9e0
0,         53,         53,        1,   864000, 0xd6d554ba
0,         54,         54,        1,   864000, 0xbc6e06c6
0,         55,         55,        1,   864000, 0x6334fc94
0,         56,         56,        1,   864000, 0x7a7e0cdb
0,         57,         57,        1,   864000, 0xf96008cd
0,         58,         58,        1,   864000, 0xffbc4dbb
0,         59,         59,        1,   864000, 0x1071d886
0,         60,         60,        1,   864000, 0x6b967ed3
0,         61,         61,        1,   864000, 0xd370e0a2
0,         62,         62,        1,   864000, 0x4cca84e8
0,         63,         63,        1,   864000, 0xd46bdc94
0,         64,         64,        1,   864000, 0x102a54bf
0,         65,         65,        1,   864000, 0xe39406cb
0,         66,         66,        1,   864000, 0x9bb07ad9
0,         67,         67,        1,   864000, 0xd3b749b2
0,         68,         68,        1,   864000, 0x59faf47d
0,         69,         69,        1,   864000, 0xba38de30
0,         70,         70,        1,   864000, 0x7084eed8
0,         71,         71,        1,   864000, 0xa966732d
0,         72,         72,        1,   864000, 0xb9f1ee2b
0,         73,         73,        1,   864000, 0x09267201
0,         74,         74,        1,   864000, 0xc6b09e30
0,         75,         75,        1,   864000, 0x080d1e77
0,         76,         76,        1,   864000, 0xe28bbdc5
0,         77,         77,        1,   864000, 0x230a30f8
0,         78,         78,        1,   864000, 0x4d0bb8cd
0,         79,         79,        1,   864000, 0x96096417
0,         80,         80,        1,   864000, 0x7467d417
0,         81,         81,        1,   864000, 0xbcc07491
0,         82,         82,        1,   864000, 0x794718d7
0,         83,         83,        1,   864000, 0xf23ff243
0,         84,         84,        1,   864000, 0x9961bb86
0,         85,         85,        1,   864000, 0x7be4c703
0,         86,         86,        1,   864000, 0x727f8e3f
0,         87,         87,        1,   864000, 0xda421623
0,         88,         88,        1,   864000, 0xca69ac6b
0,         89,         89,        1,   864000, 0x67aeb68e
0,         90,         90,        1,   864000, 0x3b665f61
0,         91,         91,        1,   864000, 0x3716150b
0,         92,         92,        1,   864000, 0x2dcd57f2
0,         93,         93,        1,   864000, 0x800257f2
0,         94,         94,        1,   864000, 0x10de99ef
0,         95,         95,        1,   864000, 0x3438389f
0,         96,         96,        1,   864000, 0x42682867
0,         97,         97,        1,   864000, 0x9d64d5a9
0,         98,         98,        1,   864000, 0x9e2eb12b
0,         99,         99,        1,   864000, 0xb9f42d64
0,        100,        100,        1,   864000, 0xd6f36c3d
0,        101,        101,        1,   864000, 0xfeaa390f
0,        102,        102,        1,   864000, 0x3fe067b0
0,        103,        103,        1,   864000, 0x45ebac70
0,        104,        104,        1,   864000, 0xabfb9215
0,        105,        105,        1,   864000, 0x20f79c38
0,        106,        106,        1,   864000, 0x326858d2
0,        107,        107,        1,   864000, 0x67154ef1
0,        108,        108,        1,   864000, 0x2b3d328f
0,        109,        109,        1,   864000, 0x8190250b
0,        110,        110,        1,   864000, 0x31dead22
0,        111,        111,        1,   864000, 0xa9b8d9bc
0,        112,        112,        1,   864000, 0x330db698
0,        113,        113,        1,   864000, 0x0ff803b1
0,        114,        114,        1,   864000, 0xb7614eb4
0,        115,        115,        1,   864000, 0x12c75d64
0,        116,        116,        1,   864000, 0x622c03f3
0,        117,        117,        1,   864000, 0x0ace0b90
0,        118,        118,        1,   864000, 0x2c2b59c6
0,        119,        119,        1,   864000, 0xadbbe628
0,        120,        120,        1,   864000, 0x1371f576
0,        121,        121,        1,   864000, 0x066a471c
0,        122,        122,        1,   864000, 0x0e6f8a03
0,        123,        123,        1,   864000, 0x4325670d
0,        124,        124,        1,   864000, 0x2e8abe3a
0,        125,        125,        1,   864000, 0x0ea8b8a4
0,        126,        126,        1,   864000, 0x65e4eb53
0,        127,        127,        1,   864000, 0xa03d108d
0,        128,        128,        1,   864000, 0xd3d56fd6
0,        129,        129,        1,   864000, 0x1b8e4c47
0,        130,        130,        1,   864000, 0x5bd0316d
0,        131,        131,        1,   864000, 0x49478b20
0,        132,        132,        1,   864000, 0x3dae9cb2
0,        133,        133,        1,   864000, 0x671e2b2a
0,        134,        134,        1,   864000, 0x521763ee
0,        135,        135,        1,   864000, 0x73dc4b9a
0,        136,        136,        1,   864000, 0x3c95d7bf
0,        137,        137,        1,   864000, 0x3abdc580
0,        138,        138,        1,   864000, 0xae24d5b8
0,        139,        139,        1,   864000, 0xe630dfdb
0,        140,        140,        1,   864000, 0x229ad7bf
0,        141,        141,        1,   864000, 0x3372e1e2
0,        142,        142,        1,   864000, 0xa821c580
0,        143,        143,        1,   864000, 0x7c78e5f0
0,        144,        144,        1,   864000, 0x3324ddd4
0,        145,        145,        1,   864000, 0x98580f38
0,        146,        146,        1,   864000, 0x14072fa8
0,        147,        147,        1,   864000, 0xdbb21510
0,        148,        148,        1,   864000, 0x6a55b3b1
0,        149,        149,        1,   864000, 0x7b5ba580
0,        150,        150,        1,   864000, 0x2f5e8102
0,        151,        151,        1,   864000, 0x691e2313
0,        152,        152,        1,   864000, 0x423b1af7
0,        153,        153,        1,   864000, 0x02842b2f
0,        154,        154,        1,   864000, 0x8a4e24dd
0,        155,        155,        1,   864000, 0xbbebf834
0,        156,        156,        1,   864000, 0x0ba68a3b
0,        157,        157,        1,   864000, 0x6390d66a
0,        158,        158,        1,   864000, 0x6ee32da6
0,        159,        159,        1,   864000, 0xace87229
0,        160,        160,        1,   864000, 0xb2a10064
0,        161,        161,        1,   864000, 0x9cc42dab
0,        162,        162,        1,   864000, 0x32eb0f42
0,        163,        163,        1,   864000, 0x6cb1fa03
0,        164,        164,        1,   864000, 0xddd28c0a
0,        165,        165,        1,   864000, 0xae5ca0cf
0,        166,        166,        1,   864000, 0x4cb99ec8
0,        167,        167,        1,   864000, 0xdad7d37e
0,        168,        168,        1,   864000, 0x7090b71c
0,        169,        169,        1,   864000, 0x7090b71c
0,        170,        170,        1,   864000, 0x96a4c54d
0,        171,        171,        1,   864000, 0x96a4c54d
0,        172,        172,        1,   864000, 0x96a4c54d
0,        173,        173,        1,   864000, 0xc47eb71c
0,        174,        174,        1,   864000, 0xcd678c89
0,        175,        175,        1,   864000, 0xb89e7843
0,        176,        176,        1,   864000, 0x7f3aa2d6
0,        177,        177,        1,   864000, 0xffc57e58
0,        178,        178,        1,   864000, 0x091fa2d6
0,        179,        179,        1,   864000, 0x3bc994a5
0,        180,        180,        1,   864000, 0x73afacf9
0,        181,        181,        1,   864000, 0x628b8266
0,        182,        182,        1,   864000, 0xe2f2a4dd
0,        183,        183,        1,   864000, 0x7118e9cb
0,        184,        184,        1,   864000, 0x65b1438d
0,        185,        185,        1,   864000, 0x51657ec8
0,        186,        186,        1,   864000, 0x41a75435
0,        187,        187,        1,   864000, 0xe387f665
0,        188,        188,        1,   864000, 0x2baabb9a
0,        189,        189,        1,   864000, 0xd2d74993
0,        190,        190,        1,   864000, 0xd2d74993
0,        191,        191,        1,   864000, 0xa7bf53b6
